<?xml version="1.0" encoding="utf-8"?>
<!-- Generator: Adobe Illustrator 24.3.0, SVG Export Plug-In . SVG Version: 6.00 Build 0)  -->
<svg version="1.1" id="Layer_1" xmlns="http://www.w3.org/2000/svg" xmlns:xlink="http://www.w3.org/1999/xlink" x="0px" y="0px"
	 viewBox="0 0 960 540" style="enable-background:new 0 0 960 540;" xml:space="preserve">
<style type="text/css">
	.st0{clip-path:url(#SVGID_2_);}
	.st1{fill-rule:evenodd;clip-rule:evenodd;fill:#FFFFFF;}
	.st2{fill-rule:evenodd;clip-rule:evenodd;fill-opacity:0;}
	.st3{fill:none;stroke:#B3A77D;stroke-width:8;stroke-linejoin:round;stroke-miterlimit:10;}
	.st4{fill:none;stroke:#4DB6AC;stroke-width:8;stroke-linejoin:round;stroke-miterlimit:10;}
	.st5{fill:none;stroke:#4DB6AC;stroke-linejoin:round;stroke-miterlimit:10;}
	.st6{fill:#EF6C00;}
	.st7{fill:#695D46;}
	.st8{fill-opacity:0;}
	.st9{fill:#CE93D8;}
	.st10{fill:#010000;fill-opacity:0;}
	.st11{fill:none;}
</style>
<g>
	<defs>
		<rect id="SVGID_1_" width="960" height="540"/>
	</defs>
	<clipPath id="SVGID_2_">
		<use xlink:href="#SVGID_1_"  style="overflow:visible;"/>
	</clipPath>
	<g class="st0">
		<path class="st1" d="M0,0h960v540H0V0z"/>
		<path class="st2" d="M735.7,333.5h59"/>
		<path class="st3" d="M735.7,333.5h59"/>
		<path class="st2" d="M165.4,331.6h59"/>
		<path class="st3" d="M165.4,331.6h59"/>
		<path class="st2" d="M854.7,107.3H105.4"/>
		<path class="st4" d="M854.7,107.3H105.4"/>
		<path class="st2" d="M854.7,123.3H105.4"/>
		<path class="st5" d="M854.7,123.3H105.4"/>
		<path class="st2" d="M105.4,432.7h749.3"/>
		<path class="st4" d="M105.4,432.7h749.3"/>
		<path class="st2" d="M105.4,416.7h749.3"/>
		<path class="st5" d="M105.4,416.7h749.3"/>
		<path class="st2" d="M105.4,183.9h749.3v107.3H105.4L105.4,183.9z"/>
		<path class="st6" d="M246.1,223.3h-12v42h-9.1v-42h-12V215h33V223.3z M264.5,229.4l5,18.4l0.9,6h0.3l0.7-6l3.4-18.4h7.8l-8.9,36.4
			h-6.8l-5.4-20.1L261,241h-0.4l-0.5,4.8l-5.2,19.9h-7l-9.2-36.4h9.3l3.9,18.1l0.6,6.4h0.3l0.9-6.5l4.4-18H264.5z M285.9,229.4h8.6
			v36h-8.6V229.4z M284.4,219.2c0-1.4,0.5-2.6,1.4-3.6c0.9-0.9,2.2-1.4,3.9-1.4c1.7,0,3,0.5,4,1.4c1,0.9,1.5,2.1,1.5,3.6
			c0,1.5-0.5,2.7-1.5,3.5c-1,0.9-2.4,1.3-4,1.3c-1.7,0-3-0.4-3.9-1.3C284.8,221.8,284.4,220.7,284.4,219.2z M319.2,265.4v-21.9
			c0-2.6-0.3-4.5-0.9-5.5c-0.6-1.1-1.7-1.6-3.2-1.6c-1.2,0-2.3,0.4-3.2,1.2c-0.9,0.8-1.6,1.7-1.9,2.9v25h-8.6v-36h6.8l1,4.2h0.2
			c0.9-1.4,2-2.6,3.5-3.5c1.5-1,3.4-1.5,5.8-1.5c1.4,0,2.7,0.2,3.9,0.7c1.1,0.4,2.1,1.1,2.8,2.1c0.8,1,1.3,2.3,1.7,4
			c0.4,1.7,0.6,3.7,0.6,6.2v24H319.2z M376.3,263.4c-1.2,1.1-2.9,1.8-5,2.3c-2.1,0.5-4.2,0.7-6.2,0.7c-2.6,0-5-0.4-7.2-1.3
			c-2.2-0.9-4.2-2.4-5.9-4.4c-1.7-2.1-3-4.8-4-8.1c-1-3.4-1.4-7.5-1.4-12.4c0-5.1,0.5-9.3,1.6-12.7c1.1-3.4,2.5-6,4.2-8
			c1.8-2,3.8-3.4,6-4.2c2.3-0.8,4.5-1.2,6.8-1.2c2.4,0,4.4,0.2,6.2,0.6c1.8,0.4,3.2,0.8,4.3,1.3l-1.8,8c-0.9-0.5-2-0.8-3.2-1.1
			c-1.2-0.3-2.7-0.4-4.3-0.4c-3.3,0-5.9,1.4-7.6,4.3c-1.8,2.9-2.7,7.4-2.7,13.5c0,2.6,0.2,5.1,0.6,7.2c0.4,2.2,1.1,4.1,1.9,5.6
			c0.9,1.6,2,2.8,3.4,3.7c1.4,0.9,3,1.3,4.9,1.3c1.7,0,3.1-0.2,4.3-0.7c1.2-0.5,2.3-1,3.2-1.6L376.3,263.4z M381.2,229.4h8.6v36
			h-8.6V229.4z M379.7,219.2c0-1.4,0.5-2.6,1.4-3.6c0.9-0.9,2.2-1.4,3.9-1.4c1.7,0,3,0.5,4,1.4c1,0.9,1.5,2.1,1.5,3.6
			c0,1.5-0.5,2.7-1.5,3.5c-1,0.9-2.4,1.3-4,1.3c-1.7,0-3-0.4-3.9-1.3C380.2,221.8,379.7,220.7,379.7,219.2z M393.9,229.4h4v-6.8
			l8.6-2.7v9.4h7v7.6h-7v15.7c0,2.1,0.2,3.5,0.6,4.4c0.4,0.9,1.2,1.3,2.2,1.3c0.7,0,1.4-0.1,1.9-0.2c0.6-0.1,1.2-0.4,1.9-0.6
			l1.1,6.8c-1.1,0.5-2.3,1-3.7,1.3c-1.4,0.4-2.8,0.5-4.4,0.5c-2.7,0-4.8-0.8-6.2-2.4c-1.4-1.6-2-4.2-2-8V237h-4V229.4z M418.3,229.4
			h8.6v36h-8.6V229.4z M416.8,219.2c0-1.4,0.5-2.6,1.4-3.6c0.9-0.9,2.2-1.4,3.9-1.4c1.7,0,3,0.5,4,1.4c1,0.9,1.5,2.1,1.5,3.6
			c0,1.5-0.5,2.7-1.5,3.5c-1,0.9-2.4,1.3-4,1.3c-1.7,0-3-0.4-3.9-1.3C417.3,221.8,416.8,220.7,416.8,219.2z M458.2,262.7
			c-1.2,1.1-2.8,1.9-4.9,2.6c-2.1,0.7-4.2,1-6.5,1c-2.5,0-4.7-0.4-6.5-1.3c-1.8-0.9-3.3-2.1-4.4-3.7c-1.1-1.6-2-3.6-2.5-5.9
			c-0.6-2.3-0.8-5-0.8-8c0-6.5,1.3-11.3,3.8-14.4c2.6-3.1,6.1-4.7,10.7-4.7c1.5,0,3,0.2,4.5,0.7c1.4,0.5,2.7,1.2,3.9,2.3
			c1.1,1.1,2,2.5,2.7,4.3c0.7,1.8,1,4.1,1,6.8c0,1.1-0.1,2.2-0.2,3.4c-0.1,1.2-0.3,2.5-0.5,3.9H441c0.1,3,0.7,5.3,1.9,6.8
			c1.2,1.6,3,2.4,5.5,2.4c1.5,0,2.9-0.2,4.2-0.7c1.3-0.5,2.3-1,2.9-1.5L458.2,262.7z M446.9,235.7c-1.8,0-3.2,0.7-4.1,2.2
			c-0.9,1.5-1.4,3.5-1.6,6.1h9.9c0.1-2.7-0.2-4.8-0.9-6.2C449.6,236.4,448.5,235.7,446.9,235.7z M476.7,255.8c0-1-0.3-1.9-1-2.5
			c-0.6-0.7-1.5-1.3-2.5-1.9c-1-0.6-2.1-1.2-3.2-1.8c-1.1-0.6-2.2-1.4-3.2-2.3c-1-0.9-1.8-2-2.5-3.3c-0.6-1.3-1-2.9-1-4.9
			c0-3.4,0.9-6,2.7-7.8c1.8-1.8,4.5-2.7,8.1-2.7c2.1,0,4.1,0.2,6,0.7c1.9,0.5,3.4,1,4.5,1.7l-2,6.6c-0.9-0.4-2-0.8-3.3-1.1
			c-1.3-0.4-2.6-0.5-3.8-0.5c-2.4,0-3.5,1-3.5,3c0,0.9,0.3,1.7,1,2.3c0.7,0.6,1.5,1.2,2.5,1.8c1,0.6,2.1,1.2,3.2,1.8
			c1.1,0.6,2.2,1.4,3.2,2.3c1,0.9,1.8,2.1,2.5,3.4c0.7,1.3,1,3,1,5c0,3.3-1,6-3,8c-2,2-5,3-9,3c-2,0-3.9-0.2-5.8-0.7
			c-1.9-0.5-3.4-1.1-4.6-1.9l2.4-6.9c1,0.6,2.2,1.1,3.5,1.5c1.3,0.4,2.7,0.6,4.1,0.6c1.1,0,2-0.2,2.7-0.8
			C476.4,257.7,476.7,256.9,476.7,255.8z M537,239.4l1-9.7h-0.4l-2.7,8.6l-8.2,17.7h-3l-8.7-17.8l-2.7-8.7h-0.4l1.4,9.7v26.1h-8.6
			V215h8.7l10.5,21.8l1.7,6.3h0.3l1.7-6.4l9.9-21.7h8.6v50.4H537V239.4z M552.5,231.5c1.4-0.9,3.2-1.6,5.4-2.1
			c2.2-0.5,4.6-0.8,7.3-0.8c4.1,0,6.9,1.1,8.5,3.2c1.6,2.1,2.4,5.1,2.4,9c0,2.2-0.1,4.5-0.2,6.7c-0.1,2.2-0.2,4.3-0.2,6.4
			c0,2.1,0,4.1,0.1,6c0.1,1.9,0.4,3.8,1,5.5h-7l-1.4-4.4h-0.3c-0.8,1.4-1.8,2.5-3.2,3.5c-1.4,0.9-3.1,1.4-5.2,1.4
			c-2.8,0-5.1-0.9-6.7-2.8c-1.6-1.9-2.5-4.4-2.5-7.6c0-4.3,1.5-7.4,4.6-9.2c3.1-1.8,7.2-2.6,12.5-2.3c0.2-2.8,0.1-4.8-0.5-6
			c-0.6-1.3-1.9-1.9-3.8-1.9c-1.4,0-2.9,0.2-4.5,0.5c-1.5,0.3-2.9,0.8-4.1,1.4L552.5,231.5z M562.8,258.5c1.3,0,2.3-0.3,3.2-1
			c0.8-0.6,1.4-1.4,1.8-2.1v-6c-1.1-0.1-2.2-0.2-3.2-0.1c-1,0.1-1.9,0.3-2.7,0.7c-0.8,0.3-1.4,0.8-1.8,1.5c-0.5,0.6-0.7,1.5-0.7,2.5
			c0,1.5,0.3,2.6,0.9,3.4C560.9,258.1,561.7,258.5,562.8,258.5z M599.1,237.9c-1.2-0.4-2.2-0.7-3.2-0.7c-1.3,0-2.4,0.4-3.4,1.1
			c-0.9,0.7-1.6,1.7-1.9,3v24h-8.6v-36h6.5l1,4.3h0.3c0.6-1.6,1.5-2.8,2.7-3.7c1.2-0.9,2.5-1.3,4.1-1.3c1.1,0,2.3,0.2,3.4,0.7
			L599.1,237.9z M603.3,231.5c1.4-0.9,3.2-1.6,5.4-2.1c2.2-0.5,4.6-0.8,7.3-0.8c4.1,0,6.9,1.1,8.5,3.2c1.6,2.1,2.4,5.1,2.4,9
			c0,2.2-0.1,4.5-0.2,6.7c-0.1,2.2-0.2,4.3-0.2,6.4c0,2.1,0,4.1,0.1,6c0.1,1.9,0.4,3.8,1,5.5h-7l-1.4-4.4H619
			c-0.8,1.4-1.8,2.5-3.2,3.5c-1.4,0.9-3.1,1.4-5.2,1.4c-2.8,0-5.1-0.9-6.7-2.8c-1.6-1.9-2.5-4.4-2.5-7.6c0-4.3,1.5-7.4,4.6-9.2
			c3.1-1.8,7.2-2.6,12.5-2.3c0.2-2.8,0.1-4.8-0.5-6c-0.6-1.3-1.9-1.9-3.8-1.9c-1.4,0-2.9,0.2-4.5,0.5c-1.5,0.3-2.9,0.8-4.1,1.4
			L603.3,231.5z M613.6,258.5c1.3,0,2.3-0.3,3.2-1c0.8-0.6,1.4-1.4,1.8-2.1v-6c-1.1-0.1-2.2-0.2-3.2-0.1c-1,0.1-1.9,0.3-2.7,0.7
			c-0.8,0.3-1.4,0.8-1.8,1.5c-0.5,0.6-0.7,1.5-0.7,2.5c0,1.5,0.3,2.6,0.9,3.4C611.7,258.1,612.6,258.5,613.6,258.5z M630.2,229.4h4
			v-6.8l8.6-2.7v9.4h7v7.6h-7v15.7c0,2.1,0.2,3.5,0.6,4.4c0.4,0.9,1.2,1.3,2.2,1.3c0.7,0,1.4-0.1,1.9-0.2c0.6-0.1,1.2-0.4,1.9-0.6
			l1.1,6.8c-1.1,0.5-2.3,1-3.7,1.3c-1.4,0.4-2.8,0.5-4.4,0.5c-2.7,0-4.8-0.8-6.2-2.4c-1.4-1.6-2-4.2-2-8V237h-4V229.4z M671.8,265.4
			v-21.8c0-2.6-0.3-4.5-0.9-5.6c-0.6-1.2-1.7-1.7-3.3-1.7c-1.2,0-2.2,0.4-3.2,1.2c-1,0.8-1.6,1.8-2,3.1v24.8h-8.6V215h8.6v17.6h0.2
			c1-1.2,2.1-2.2,3.5-3c1.4-0.8,3.1-1.2,5.2-1.2c1.5,0,2.8,0.2,3.9,0.7c1.1,0.4,2,1.1,2.8,2.2c0.8,1,1.3,2.4,1.7,4.1
			c0.4,1.7,0.6,3.8,0.6,6.4v23.6H671.8z M685,247.4c0-6.4,1.2-11.1,3.7-14.2c2.5-3.1,6-4.7,10.5-4.7c4.8,0,8.4,1.6,10.7,4.8
			c2.4,3.2,3.5,7.9,3.5,14.2c0,6.4-1.2,11.2-3.8,14.3c-2.5,3.1-6,4.6-10.5,4.6C689.7,266.3,685,260,685,247.4z M693.8,247.4
			c0,3.6,0.4,6.4,1.2,8.4c0.8,2,2.2,2.9,4.1,2.9c1.8,0,3.2-0.8,4.1-2.5c0.9-1.7,1.3-4.6,1.3-8.8c0-3.7-0.4-6.5-1.2-8.4
			c-0.8-1.9-2.2-2.9-4.2-2.9c-1.7,0-3,0.9-3.9,2.6C694.3,240.3,693.8,243.2,693.8,247.4z M736.2,265.4v-21.9c0-2.6-0.3-4.5-0.9-5.5
			c-0.6-1.1-1.7-1.6-3.2-1.6c-1.2,0-2.3,0.4-3.2,1.2c-0.9,0.8-1.6,1.7-1.9,2.9v25h-8.6v-36h6.8l1,4.2h0.2c0.9-1.4,2-2.6,3.5-3.5
			c1.5-1,3.4-1.5,5.8-1.5c1.4,0,2.7,0.2,3.9,0.7c1.1,0.4,2.1,1.1,2.8,2.1c0.8,1,1.3,2.3,1.7,4c0.4,1.7,0.6,3.7,0.6,6.2v24H736.2z"/>
		<path class="st2" d="M224.4,299.2h511.3v83.2H224.4V299.2z"/>
		<path class="st7" d="M384.9,327.4h-1.7v-6.7h-7.5v6.7h-1.7v-14.3h1.7v6.1h7.5v-6.1h1.7V327.4z M395.2,327.4l-0.3-1.5h-0.1
			c-0.5,0.7-1.1,1.1-1.6,1.4c-0.5,0.2-1.2,0.4-2,0.4c-1.1,0-1.9-0.3-2.5-0.8c-0.6-0.6-0.9-1.3-0.9-2.3c0-2.2,1.7-3.3,5.2-3.4
			l1.8-0.1v-0.7c0-0.8-0.2-1.5-0.5-1.9c-0.4-0.4-0.9-0.6-1.7-0.6c-0.9,0-1.9,0.3-3,0.8l-0.5-1.2c0.5-0.3,1.1-0.5,1.7-0.7
			c0.6-0.2,1.3-0.2,1.9-0.2c1.3,0,2.2,0.3,2.8,0.8c0.6,0.6,0.9,1.5,0.9,2.7v7.3H395.2z M391.5,326.3c1,0,1.8-0.3,2.4-0.8
			c0.6-0.6,0.9-1.3,0.9-2.3v-1l-1.6,0.1c-1.3,0.1-2.2,0.3-2.8,0.6c-0.6,0.4-0.8,0.9-0.8,1.7c0,0.6,0.2,1,0.5,1.3
			C390.4,326.1,390.9,326.3,391.5,326.3z M401.3,327.4h-1.6v-15.2h1.6V327.4z M409.3,327.6c-1.6,0-2.8-0.5-3.7-1.5
			c-0.9-1-1.4-2.3-1.4-4c0-1.7,0.4-3.1,1.3-4.1c0.9-1,2-1.5,3.4-1.5c1.3,0,2.4,0.4,3.2,1.3c0.8,0.9,1.2,2.1,1.2,3.5v1h-7.4
			c0,1.3,0.4,2.2,1,2.9c0.6,0.6,1.5,1,2.5,1c1.2,0,2.3-0.2,3.4-0.7v1.4c-0.6,0.2-1.1,0.4-1.6,0.5C410.6,327.6,410,327.6,409.3,327.6
			z M408.9,317.9c-0.9,0-1.5,0.3-2,0.8c-0.5,0.6-0.8,1.3-0.9,2.3h5.6c0-1-0.2-1.8-0.7-2.3C410.4,318.1,409.7,317.9,408.9,317.9z
			 M414.3,316.7h1.8l2.3,6.1c0.5,1.4,0.8,2.4,1,3h0.1c0.1-0.3,0.3-0.9,0.5-1.7c0.3-0.8,1.2-3.3,2.7-7.4h1.7l-4.6,12.2
			c-0.4,1.2-1,2.1-1.6,2.6c-0.6,0.5-1.3,0.8-2.2,0.8c-0.5,0-1-0.1-1.5-0.2v-1.3c0.4,0.1,0.8,0.1,1.2,0.1c1.1,0,1.9-0.6,2.4-1.9
			l0.6-1.5L414.3,316.7z M440.5,327.4l-1.8-4.5H433l-1.8,4.5h-1.7l5.6-14.3h1.4l5.6,14.3H440.5z M438.2,321.4l-1.7-4.4
			c-0.2-0.6-0.4-1.2-0.7-2.1c-0.1,0.6-0.3,1.3-0.6,2.1l-1.7,4.4H438.2z M448.8,316.5c0.5,0,0.9,0,1.3,0.1l-0.2,1.5
			c-0.4-0.1-0.8-0.1-1.2-0.1c-0.9,0-1.6,0.4-2.2,1.1c-0.6,0.7-0.9,1.6-0.9,2.6v5.8h-1.6v-10.7h1.3l0.2,2h0.1
			c0.4-0.7,0.9-1.2,1.4-1.6C447.5,316.7,448.1,316.5,448.8,316.5z M456.4,327.6c-1.6,0-2.8-0.5-3.6-1.4c-0.8-1-1.3-2.3-1.3-4
			c0-1.8,0.4-3.2,1.3-4.2c0.9-1,2.1-1.5,3.7-1.5c0.5,0,1,0.1,1.5,0.2c0.5,0.1,0.9,0.2,1.2,0.4l-0.5,1.4c-0.4-0.1-0.7-0.3-1.2-0.4
			c-0.4-0.1-0.8-0.1-1.1-0.1c-2.2,0-3.3,1.4-3.3,4.2c0,1.3,0.3,2.3,0.8,3c0.5,0.7,1.3,1,2.4,1c0.9,0,1.8-0.2,2.8-0.6v1.4
			C458.4,327.4,457.5,327.6,456.4,327.6z M468.9,327.4v-6.9c0-0.9-0.2-1.5-0.6-2c-0.4-0.4-1-0.6-1.9-0.6c-1.1,0-1.9,0.3-2.5,0.9
			c-0.5,0.6-0.8,1.6-0.8,3v5.6h-1.6v-15.2h1.6v4.6c0,0.6,0,1-0.1,1.4h0.1c0.3-0.5,0.8-0.9,1.4-1.2c0.6-0.3,1.3-0.5,2-0.5
			c1.3,0,2.3,0.3,3,0.9c0.7,0.6,1,1.6,1,3v7H468.9z M478.4,327.6c-1.6,0-2.8-0.5-3.7-1.5c-0.9-1-1.4-2.3-1.4-4
			c0-1.7,0.4-3.1,1.3-4.1c0.9-1,2-1.5,3.4-1.5c1.3,0,2.4,0.4,3.2,1.3s1.2,2.1,1.2,3.5v1H475c0,1.3,0.4,2.2,1,2.9
			c0.6,0.6,1.5,1,2.5,1c1.2,0,2.3-0.2,3.4-0.7v1.4c-0.6,0.2-1.1,0.4-1.6,0.5C479.8,327.6,479.1,327.6,478.4,327.6z M478,317.9
			c-0.9,0-1.5,0.3-2,0.8c-0.5,0.6-0.8,1.3-0.9,2.3h5.6c0-1-0.2-1.8-0.7-2.3C479.5,318.1,478.8,317.9,478,317.9z M490,316.5
			c0.5,0,0.9,0,1.3,0.1l-0.2,1.5c-0.4-0.1-0.8-0.1-1.2-0.1c-0.9,0-1.6,0.4-2.2,1.1c-0.6,0.7-0.9,1.6-0.9,2.6v5.8h-1.6v-10.7h1.3
			l0.2,2h0.1c0.4-0.7,0.9-1.2,1.4-1.6C488.7,316.7,489.3,316.5,490,316.5z M492.4,322.8v-1.5h4.8v1.5H492.4z M506.3,327.4l-4.8-12.7
			h-0.1c0.1,1,0.1,2.2,0.1,3.6v9.1H500v-14.3h2.5l4.5,11.8h0.1l4.6-11.8h2.5v14.3h-1.7v-9.2c0-1.1,0-2.2,0.1-3.4h-0.1l-4.9,12.6
			H506.3z M522,327.6c-1.6,0-2.8-0.5-3.6-1.4c-0.8-1-1.3-2.3-1.3-4c0-1.8,0.4-3.2,1.3-4.2c0.9-1,2.1-1.5,3.7-1.5
			c0.5,0,1,0.1,1.5,0.2c0.5,0.1,0.9,0.2,1.2,0.4l-0.5,1.4c-0.4-0.1-0.7-0.3-1.2-0.4c-0.4-0.1-0.8-0.1-1.1-0.1
			c-2.2,0-3.3,1.4-3.3,4.2c0,1.3,0.3,2.3,0.8,3c0.5,0.7,1.3,1,2.4,1c0.9,0,1.8-0.2,2.8-0.6v1.4C524,327.4,523.1,327.6,522,327.6z
			 M533.6,314.4c-1.6,0-2.8,0.5-3.7,1.6c-0.9,1-1.4,2.5-1.4,4.3c0,1.9,0.4,3.3,1.3,4.3s2.1,1.5,3.8,1.5c1,0,2.1-0.2,3.4-0.5v1.5
			c-1,0.4-2.2,0.6-3.7,0.6c-2.1,0-3.7-0.6-4.9-1.9c-1.1-1.3-1.7-3.1-1.7-5.4c0-1.5,0.3-2.8,0.8-3.9c0.6-1.1,1.3-2,2.4-2.6
			c1-0.6,2.3-0.9,3.7-0.9c1.5,0,2.8,0.3,3.9,0.8l-0.7,1.4C535.8,314.7,534.7,314.4,533.6,314.4z M541.5,327.4h-1.6v-15.2h1.6V327.4z
			 M549.5,327.6c-1.6,0-2.8-0.5-3.7-1.5c-0.9-1-1.4-2.3-1.4-4c0-1.7,0.4-3.1,1.3-4.1c0.9-1,2-1.5,3.4-1.5c1.3,0,2.4,0.4,3.2,1.3
			s1.2,2.1,1.2,3.5v1H546c0,1.3,0.4,2.2,1,2.9c0.6,0.6,1.5,1,2.5,1c1.2,0,2.3-0.2,3.4-0.7v1.4c-0.6,0.2-1.1,0.4-1.6,0.5
			C550.8,327.6,550.2,327.6,549.5,327.6z M549,317.9c-0.9,0-1.5,0.3-2,0.8c-0.5,0.6-0.8,1.3-0.9,2.3h5.6c0-1-0.2-1.8-0.7-2.3
			C550.5,318.1,549.9,317.9,549,317.9z M557.8,327.4h-1.6v-15.2h1.6V327.4z M562.9,327.4h-1.6v-15.2h1.6V327.4z M572.9,327.4
			l-0.3-1.5h-0.1c-0.5,0.7-1.1,1.1-1.6,1.4c-0.5,0.2-1.2,0.4-2,0.4c-1.1,0-1.9-0.3-2.5-0.8c-0.6-0.6-0.9-1.3-0.9-2.3
			c0-2.2,1.7-3.3,5.2-3.4l1.8-0.1v-0.7c0-0.8-0.2-1.5-0.5-1.9c-0.4-0.4-0.9-0.6-1.7-0.6c-0.9,0-1.9,0.3-3,0.8l-0.5-1.2
			c0.5-0.3,1.1-0.5,1.7-0.7c0.6-0.2,1.3-0.2,1.9-0.2c1.3,0,2.2,0.3,2.8,0.8c0.6,0.6,0.9,1.5,0.9,2.7v7.3H572.9z M569.2,326.3
			c1,0,1.8-0.3,2.4-0.8c0.6-0.6,0.9-1.3,0.9-2.3v-1l-1.6,0.1c-1.3,0.1-2.2,0.3-2.8,0.6c-0.6,0.4-0.8,0.9-0.8,1.7
			c0,0.6,0.2,1,0.5,1.3C568.1,326.1,568.6,326.3,569.2,326.3z M584.8,327.4v-6.9c0-0.9-0.2-1.5-0.6-2c-0.4-0.4-1-0.6-1.9-0.6
			c-1.1,0-1.9,0.3-2.5,0.9c-0.5,0.6-0.8,1.6-0.8,3v5.6h-1.6v-10.7h1.3l0.3,1.5h0.1c0.3-0.5,0.8-0.9,1.4-1.2c0.6-0.3,1.3-0.4,2-0.4
			c1.3,0,2.3,0.3,2.9,0.9c0.7,0.6,1,1.6,1,3v7H584.8z"/>
		<path class="st8" d="M335.9,330h288.2v27.2H335.9V330z"/>
		<path class="st9" d="M345,351.4v-6.9c0-0.9-0.2-1.5-0.6-2c-0.4-0.4-1-0.6-1.9-0.6c-1.1,0-1.9,0.3-2.5,0.9c-0.5,0.6-0.8,1.6-0.8,3
			v5.6h-1.6v-15.2h1.6v4.6c0,0.6,0,1-0.1,1.4h0.1c0.3-0.5,0.8-0.9,1.4-1.2c0.6-0.3,1.3-0.5,2-0.5c1.3,0,2.3,0.3,3,0.9
			c0.7,0.6,1,1.6,1,3v7H345z M351.6,351.4h-1.6v-10.7h1.6V351.4z M349.8,337.8c0-0.4,0.1-0.6,0.3-0.8c0.2-0.2,0.4-0.3,0.7-0.3
			c0.3,0,0.5,0.1,0.7,0.3c0.2,0.2,0.3,0.4,0.3,0.8c0,0.4-0.1,0.6-0.3,0.8c-0.2,0.2-0.4,0.3-0.7,0.3c-0.3,0-0.5-0.1-0.7-0.3
			C349.9,338.4,349.8,338.2,349.8,337.8z M359.9,340.5c0.5,0,0.9,0,1.3,0.1l-0.2,1.5c-0.4-0.1-0.8-0.1-1.2-0.1
			c-0.9,0-1.6,0.4-2.2,1.1c-0.6,0.7-0.9,1.6-0.9,2.6v5.8H355v-10.7h1.3l0.2,2h0.1c0.4-0.7,0.9-1.2,1.4-1.6
			C358.6,340.7,359.2,340.5,359.9,340.5z M367.7,351.6c-1.6,0-2.8-0.5-3.7-1.5c-0.9-1-1.4-2.3-1.4-4c0-1.7,0.4-3.1,1.3-4.1
			c0.9-1,2-1.5,3.4-1.5c1.3,0,2.4,0.4,3.2,1.3c0.8,0.9,1.2,2.1,1.2,3.5v1h-7.4c0,1.3,0.4,2.2,1,2.9c0.6,0.6,1.5,1,2.5,1
			c1.2,0,2.3-0.2,3.4-0.7v1.4c-0.6,0.2-1.1,0.4-1.6,0.5C369,351.6,368.4,351.6,367.7,351.6z M367.2,341.9c-0.9,0-1.5,0.3-2,0.8
			c-0.5,0.6-0.8,1.3-0.9,2.3h5.6c0-1-0.2-1.8-0.7-2.3C368.7,342.1,368.1,341.9,367.2,341.9z M381.7,351.4v-6.9c0-0.9-0.2-1.5-0.6-2
			c-0.4-0.4-1-0.6-1.9-0.6c-1.1,0-1.9,0.3-2.5,0.9c-0.5,0.6-0.8,1.6-0.8,3v5.6h-1.6v-15.2h1.6v4.6c0,0.6,0,1-0.1,1.4h0.1
			c0.3-0.5,0.8-0.9,1.4-1.2c0.6-0.3,1.3-0.5,2-0.5c1.3,0,2.3,0.3,3,0.9c0.7,0.6,1,1.6,1,3v7H381.7z M393.2,351.4l-0.3-1.5h-0.1
			c-0.5,0.7-1.1,1.1-1.6,1.4c-0.5,0.2-1.2,0.4-2,0.4c-1.1,0-1.9-0.3-2.5-0.8c-0.6-0.6-0.9-1.3-0.9-2.3c0-2.2,1.7-3.3,5.2-3.4
			l1.8-0.1v-0.7c0-0.8-0.2-1.5-0.5-1.9c-0.4-0.4-0.9-0.6-1.7-0.6c-0.9,0-1.9,0.3-3,0.8l-0.5-1.2c0.5-0.3,1.1-0.5,1.7-0.7
			c0.6-0.2,1.3-0.2,1.9-0.2c1.3,0,2.2,0.3,2.8,0.8c0.6,0.6,0.9,1.5,0.9,2.7v7.3H393.2z M389.6,350.3c1,0,1.8-0.3,2.4-0.8
			c0.6-0.6,0.9-1.3,0.9-2.3v-1l-1.6,0.1c-1.3,0.1-2.2,0.3-2.8,0.6c-0.6,0.4-0.8,0.9-0.8,1.7c0,0.6,0.2,1,0.5,1.3
			C388.4,350.1,388.9,350.3,389.6,350.3z M399.4,351.4h-1.6v-15.2h1.6V351.4z M407.3,351.6c-1.6,0-2.8-0.5-3.7-1.5
			c-0.9-1-1.4-2.3-1.4-4c0-1.7,0.4-3.1,1.3-4.1c0.9-1,2-1.5,3.4-1.5c1.3,0,2.4,0.4,3.2,1.3c0.8,0.9,1.2,2.1,1.2,3.5v1h-7.4
			c0,1.3,0.4,2.2,1,2.9c0.6,0.6,1.5,1,2.5,1c1.2,0,2.3-0.2,3.4-0.7v1.4c-0.6,0.2-1.1,0.4-1.6,0.5
			C408.7,351.6,408.1,351.6,407.3,351.6z M406.9,341.9c-0.9,0-1.5,0.3-2,0.8c-0.5,0.6-0.8,1.3-0.9,2.3h5.6c0-1-0.2-1.8-0.7-2.3
			C408.4,342.1,407.8,341.9,406.9,341.9z M412.4,340.7h1.8l2.3,6.1c0.5,1.4,0.8,2.4,1,3h0.1c0.1-0.3,0.3-0.9,0.5-1.7
			c0.3-0.8,1.2-3.3,2.7-7.4h1.7l-4.6,12.2c-0.4,1.2-1,2.1-1.6,2.6c-0.6,0.5-1.3,0.8-2.2,0.8c-0.5,0-1-0.1-1.5-0.2v-1.3
			c0.4,0.1,0.8,0.1,1.2,0.1c1.1,0,1.9-0.6,2.4-1.9l0.6-1.5L412.4,340.7z M437.8,351.4v-7c0-0.9-0.2-1.5-0.5-1.9
			c-0.4-0.4-0.9-0.6-1.7-0.6c-1,0-1.7,0.3-2.2,0.9c-0.5,0.6-0.7,1.5-0.7,2.7v6h-1.6v-7c0-0.9-0.2-1.5-0.5-1.9
			c-0.4-0.4-0.9-0.6-1.7-0.6c-1,0-1.8,0.3-2.2,0.9c-0.5,0.6-0.7,1.6-0.7,3v5.6h-1.6v-10.7h1.3l0.3,1.5h0.1c0.3-0.5,0.7-0.9,1.3-1.2
			c0.6-0.3,1.2-0.5,1.9-0.5c1.7,0,2.8,0.6,3.3,1.8h0.1c0.3-0.6,0.8-1,1.4-1.3c0.6-0.3,1.3-0.5,2.1-0.5c1.2,0,2.1,0.3,2.7,0.9
			c0.6,0.6,0.9,1.6,0.9,3v7H437.8z M447,351.6c-1.6,0-2.8-0.5-3.6-1.4c-0.8-1-1.3-2.3-1.3-4c0-1.8,0.4-3.2,1.3-4.2
			c0.9-1,2.1-1.5,3.7-1.5c0.5,0,1,0.1,1.5,0.2c0.5,0.1,0.9,0.2,1.2,0.4l-0.5,1.4c-0.4-0.1-0.7-0.3-1.2-0.4c-0.4-0.1-0.8-0.1-1.1-0.1
			c-2.2,0-3.3,1.4-3.3,4.2c0,1.3,0.3,2.3,0.8,3c0.5,0.7,1.3,1,2.4,1c0.9,0,1.8-0.2,2.8-0.6v1.4C449,351.4,448.1,351.6,447,351.6z
			 M456.5,351.6c-1.6,0-2.8-0.5-3.6-1.4c-0.8-1-1.3-2.3-1.3-4c0-1.8,0.4-3.2,1.3-4.2c0.9-1,2.1-1.5,3.7-1.5c0.5,0,1,0.1,1.5,0.2
			c0.5,0.1,0.9,0.2,1.2,0.4l-0.5,1.4c-0.4-0.1-0.7-0.3-1.2-0.4c-0.4-0.1-0.8-0.1-1.1-0.1c-2.2,0-3.3,1.4-3.3,4.2
			c0,1.3,0.3,2.3,0.8,3c0.5,0.7,1.3,1,2.4,1c0.9,0,1.8-0.2,2.8-0.6v1.4C458.5,351.4,457.6,351.6,456.5,351.6z M463.4,351.4h-1.6
			v-15.2h1.6V351.4z M471.4,351.6c-1.6,0-2.8-0.5-3.7-1.5c-0.9-1-1.4-2.3-1.4-4c0-1.7,0.4-3.1,1.3-4.1c0.9-1,2-1.5,3.4-1.5
			c1.3,0,2.4,0.4,3.2,1.3c0.8,0.9,1.2,2.1,1.2,3.5v1h-7.4c0,1.3,0.4,2.2,1,2.9c0.6,0.6,1.5,1,2.5,1c1.2,0,2.3-0.2,3.4-0.7v1.4
			c-0.6,0.2-1.1,0.4-1.6,0.5C472.7,351.6,472.1,351.6,471.4,351.6z M470.9,341.9c-0.9,0-1.5,0.3-2,0.8c-0.5,0.6-0.8,1.3-0.9,2.3h5.6
			c0-1-0.2-1.8-0.7-2.3C472.4,342.1,471.8,341.9,470.9,341.9z M479.7,351.4h-1.6v-15.2h1.6V351.4z M484.7,351.4h-1.6v-15.2h1.6
			V351.4z M494.8,351.4l-0.3-1.5h-0.1c-0.5,0.7-1.1,1.1-1.6,1.4c-0.5,0.2-1.2,0.4-2,0.4c-1.1,0-1.9-0.3-2.5-0.8
			c-0.6-0.6-0.9-1.3-0.9-2.3c0-2.2,1.7-3.3,5.2-3.4l1.8-0.1v-0.7c0-0.8-0.2-1.5-0.5-1.9c-0.4-0.4-0.9-0.6-1.7-0.6
			c-0.9,0-1.9,0.3-3,0.8l-0.5-1.2c0.5-0.3,1.1-0.5,1.7-0.7c0.6-0.2,1.3-0.2,1.9-0.2c1.3,0,2.2,0.3,2.8,0.8c0.6,0.6,0.9,1.5,0.9,2.7
			v7.3H494.8z M491.1,350.3c1,0,1.8-0.3,2.4-0.8c0.6-0.6,0.9-1.3,0.9-2.3v-1l-1.6,0.1c-1.3,0.1-2.2,0.3-2.8,0.6
			c-0.6,0.4-0.8,0.9-0.8,1.7c0,0.6,0.2,1,0.5,1.3C490,350.1,490.5,350.3,491.1,350.3z M506.6,351.4v-6.9c0-0.9-0.2-1.5-0.6-2
			c-0.4-0.4-1-0.6-1.9-0.6c-1.1,0-1.9,0.3-2.5,0.9c-0.5,0.6-0.8,1.6-0.8,3v5.6h-1.6v-10.7h1.3l0.3,1.5h0.1c0.3-0.5,0.8-0.9,1.4-1.2
			c0.6-0.3,1.3-0.4,2-0.4c1.3,0,2.3,0.3,2.9,0.9c0.7,0.6,1,1.6,1,3v7H506.6z M526.7,344.3c0,0.9-0.1,1.8-0.4,2.5
			c-0.3,0.8-0.7,1.4-1.2,1.8c-0.5,0.4-1.1,0.6-1.8,0.6c-0.6,0-1-0.2-1.4-0.5c-0.4-0.3-0.6-0.8-0.7-1.3H521c-0.3,0.6-0.6,1-1.1,1.3
			c-0.5,0.3-1.1,0.5-1.7,0.5c-1,0-1.7-0.3-2.3-1c-0.6-0.7-0.8-1.6-0.8-2.7c0-1.3,0.4-2.4,1.2-3.2c0.8-0.8,1.8-1.2,3-1.2
			c0.4,0,0.9,0,1.5,0.1c0.6,0.1,1.1,0.2,1.5,0.3l-0.2,4.6v0.2c0,1.2,0.4,1.7,1.3,1.7c0.6,0,1.1-0.3,1.4-1c0.4-0.7,0.6-1.6,0.6-2.7
			c0-1.2-0.2-2.2-0.7-3.1c-0.5-0.9-1.2-1.6-2-2c-0.9-0.5-1.9-0.7-3.1-0.7c-1.4,0-2.7,0.3-3.8,0.9c-1.1,0.6-1.9,1.5-2.5,2.6
			c-0.6,1.1-0.8,2.4-0.8,3.9c0,2,0.5,3.5,1.6,4.6c1.1,1.1,2.6,1.6,4.5,1.6c1.4,0,2.8-0.3,4.3-0.8v1.3c-1.2,0.5-2.7,0.8-4.3,0.8
			c-2.4,0-4.2-0.6-5.5-1.9c-1.3-1.3-2-3.1-2-5.5c0-1.7,0.3-3.2,1-4.5c0.7-1.3,1.7-2.3,3-3.1c1.3-0.7,2.8-1.1,4.4-1.1
			c1.4,0,2.6,0.3,3.7,0.9s1.9,1.4,2.5,2.5C526.4,341.6,526.7,342.9,526.7,344.3z M516.6,345.6c0,1.7,0.6,2.5,1.9,2.5
			c1.3,0,2.1-1,2.2-3.1l0.1-2.5c-0.5-0.1-1-0.2-1.5-0.2c-0.8,0-1.5,0.3-2,0.9C516.8,343.7,516.6,344.5,516.6,345.6z M538.3,340.7v1
			l-2,0.2c0.2,0.2,0.3,0.5,0.5,0.9c0.1,0.4,0.2,0.8,0.2,1.2c0,1.1-0.4,1.9-1.1,2.5c-0.7,0.6-1.7,0.9-3,0.9c-0.3,0-0.6,0-0.9-0.1
			c-0.7,0.4-1,0.8-1,1.4c0,0.3,0.1,0.5,0.4,0.7c0.2,0.1,0.7,0.2,1.2,0.2h1.9c1.2,0,2.1,0.2,2.7,0.7c0.6,0.5,0.9,1.2,0.9,2.1
			c0,1.2-0.5,2.1-1.4,2.7c-0.9,0.6-2.3,0.9-4.2,0.9c-1.4,0-2.5-0.3-3.2-0.8c-0.8-0.5-1.1-1.3-1.1-2.2c0-0.6,0.2-1.2,0.6-1.7
			c0.4-0.5,1-0.8,1.8-1c-0.3-0.1-0.5-0.3-0.7-0.6c-0.2-0.3-0.3-0.6-0.3-0.9c0-0.4,0.1-0.7,0.3-1c0.2-0.3,0.5-0.6,1-0.9
			c-0.6-0.2-1-0.6-1.4-1.2c-0.3-0.6-0.5-1.2-0.5-1.9c0-1.2,0.3-2.1,1-2.7c0.7-0.6,1.7-1,3-1c0.6,0,1.1,0.1,1.5,0.2H538.3z
			 M529.8,353.2c0,0.6,0.2,1,0.7,1.3c0.5,0.3,1.2,0.5,2.1,0.5c1.4,0,2.4-0.2,3-0.6c0.7-0.4,1-1,1-1.7c0-0.6-0.2-1-0.5-1.2
			c-0.4-0.2-1-0.3-2-0.3h-1.9c-0.7,0-1.3,0.2-1.7,0.5C530,352.1,529.8,352.6,529.8,353.2z M530.7,344.1c0,0.7,0.2,1.3,0.6,1.7
			c0.4,0.4,1,0.6,1.8,0.6c1.6,0,2.4-0.8,2.4-2.3c0-1.6-0.8-2.4-2.4-2.4c-0.8,0-1.4,0.2-1.8,0.6C530.9,342.7,530.7,343.3,530.7,344.1
			z M554.1,351.4v-7c0-0.9-0.2-1.5-0.5-1.9c-0.4-0.4-0.9-0.6-1.7-0.6c-1,0-1.7,0.3-2.2,0.9c-0.5,0.6-0.7,1.5-0.7,2.7v6h-1.6v-7
			c0-0.9-0.2-1.5-0.5-1.9c-0.4-0.4-0.9-0.6-1.7-0.6c-1,0-1.8,0.3-2.2,0.9c-0.5,0.6-0.7,1.6-0.7,3v5.6h-1.6v-10.7h1.3l0.3,1.5h0.1
			c0.3-0.5,0.7-0.9,1.3-1.2c0.6-0.3,1.2-0.5,1.9-0.5c1.7,0,2.8,0.6,3.3,1.8h0.1c0.3-0.6,0.8-1,1.4-1.3c0.6-0.3,1.3-0.5,2.1-0.5
			c1.2,0,2.1,0.3,2.7,0.9c0.6,0.6,0.9,1.6,0.9,3v7H554.1z M565.7,351.4l-0.3-1.5h-0.1c-0.5,0.7-1.1,1.1-1.6,1.4
			c-0.5,0.2-1.2,0.4-2,0.4c-1.1,0-1.9-0.3-2.5-0.8c-0.6-0.6-0.9-1.3-0.9-2.3c0-2.2,1.7-3.3,5.2-3.4l1.8-0.1v-0.7
			c0-0.8-0.2-1.5-0.5-1.9c-0.4-0.4-0.9-0.6-1.7-0.6c-0.9,0-1.9,0.3-3,0.8l-0.5-1.2c0.5-0.3,1.1-0.5,1.7-0.7c0.6-0.2,1.3-0.2,1.9-0.2
			c1.3,0,2.2,0.3,2.8,0.8c0.6,0.6,0.9,1.5,0.9,2.7v7.3H565.7z M562,350.3c1,0,1.8-0.3,2.4-0.8c0.6-0.6,0.9-1.3,0.9-2.3v-1l-1.6,0.1
			c-1.3,0.1-2.2,0.3-2.8,0.6c-0.6,0.4-0.8,0.9-0.8,1.7c0,0.6,0.2,1,0.5,1.3C560.9,350.1,561.4,350.3,562,350.3z M571.9,351.4h-1.6
			v-10.7h1.6V351.4z M570.1,337.8c0-0.4,0.1-0.6,0.3-0.8c0.2-0.2,0.4-0.3,0.7-0.3c0.3,0,0.5,0.1,0.7,0.3c0.2,0.2,0.3,0.4,0.3,0.8
			s-0.1,0.6-0.3,0.8c-0.2,0.2-0.4,0.3-0.7,0.3c-0.3,0-0.5-0.1-0.7-0.3C570.2,338.4,570.1,338.2,570.1,337.8z M576.9,351.4h-1.6
			v-15.2h1.6V351.4z M580.1,350.4c0-0.4,0.1-0.8,0.3-1c0.2-0.2,0.5-0.3,0.9-0.3c0.4,0,0.7,0.1,0.9,0.3c0.2,0.2,0.3,0.5,0.3,1
			c0,0.4-0.1,0.7-0.3,1c-0.2,0.2-0.5,0.3-0.9,0.3c-0.3,0-0.6-0.1-0.8-0.3C580.2,351.2,580.1,350.9,580.1,350.4z M590,351.6
			c-1.6,0-2.8-0.5-3.6-1.4c-0.8-1-1.3-2.3-1.3-4c0-1.8,0.4-3.2,1.3-4.2c0.9-1,2.1-1.5,3.7-1.5c0.5,0,1,0.1,1.5,0.2
			c0.5,0.1,0.9,0.2,1.2,0.4l-0.5,1.4c-0.4-0.1-0.7-0.3-1.2-0.4c-0.4-0.1-0.8-0.1-1.1-0.1c-2.2,0-3.3,1.4-3.3,4.2
			c0,1.3,0.3,2.3,0.8,3c0.5,0.7,1.3,1,2.4,1c0.9,0,1.8-0.2,2.8-0.6v1.4C591.9,351.4,591,351.6,590,351.6z M604.4,346.1
			c0,1.7-0.4,3.1-1.3,4.1c-0.9,1-2.1,1.5-3.6,1.5c-1,0-1.8-0.2-2.6-0.7c-0.7-0.5-1.3-1.1-1.7-1.9c-0.4-0.8-0.6-1.8-0.6-3
			c0-1.8,0.4-3.1,1.3-4.1c0.9-1,2.1-1.5,3.6-1.5c1.5,0,2.7,0.5,3.6,1.5C604,343,604.4,344.4,604.4,346.1z M596.3,346.1
			c0,1.4,0.3,2.4,0.8,3.1c0.6,0.7,1.4,1.1,2.4,1.1c1.1,0,1.9-0.4,2.4-1.1c0.6-0.7,0.8-1.8,0.8-3.1c0-1.4-0.3-2.4-0.8-3.1
			c-0.6-0.7-1.4-1.1-2.4-1.1c-1.1,0-1.9,0.3-2.4,1C596.5,343.6,596.3,344.7,596.3,346.1z M620.9,351.4v-7c0-0.9-0.2-1.5-0.5-1.9
			c-0.4-0.4-0.9-0.6-1.7-0.6c-1,0-1.7,0.3-2.2,0.9c-0.5,0.6-0.7,1.5-0.7,2.7v6h-1.6v-7c0-0.9-0.2-1.5-0.5-1.9
			c-0.4-0.4-0.9-0.6-1.7-0.6c-1,0-1.8,0.3-2.2,0.9c-0.5,0.6-0.7,1.6-0.7,3v5.6h-1.6v-10.7h1.3l0.3,1.5h0.1c0.3-0.5,0.7-0.9,1.3-1.2
			c0.6-0.3,1.2-0.5,1.9-0.5c1.7,0,2.8,0.6,3.3,1.8h0.1c0.3-0.6,0.8-1,1.4-1.3c0.6-0.3,1.3-0.5,2.1-0.5c1.2,0,2.1,0.3,2.7,0.9
			c0.6,0.6,0.9,1.6,0.9,3v7H620.9z"/>
		<path class="st10" d="M624.2,330L624.2,330v27.2l0,0V330z"/>
		<path class="st9" d="M335.9,352.7h288.2v1.8H335.9V352.7z"/>
		<path class="st7" d="M433.9,375.4h-1.6v-10.2c0-0.9,0-1.7,0.1-2.4c-0.1,0.1-0.3,0.3-0.5,0.4c-0.2,0.1-0.9,0.8-2.3,1.9l-0.9-1.1
			l3.8-2.9h1.4V375.4z M448.8,375.4h-9.4V374l3.8-3.8c1.1-1.2,1.9-2,2.3-2.5c0.4-0.5,0.6-1,0.8-1.5c0.2-0.5,0.3-1,0.3-1.5
			c0-0.8-0.2-1.4-0.7-1.8c-0.5-0.4-1.1-0.7-1.9-0.7c-0.6,0-1.2,0.1-1.7,0.3c-0.5,0.2-1.1,0.5-1.8,1.1l-0.9-1.1
			c1.3-1.1,2.8-1.6,4.3-1.6c1.3,0,2.4,0.3,3.2,1c0.8,0.7,1.1,1.6,1.1,2.8c0,0.9-0.3,1.8-0.8,2.7c-0.5,0.9-1.4,2-2.8,3.4l-3.1,3.1
			v0.1h7.3V375.4z M457,361.1l-5.3,14.3H450l5.3-14.3H457z M467.6,368.3c0,2.5-0.4,4.3-1.2,5.5c-0.8,1.2-2,1.8-3.6,1.8
			c-1.5,0-2.7-0.6-3.5-1.9c-0.8-1.3-1.2-3.1-1.2-5.5c0-2.5,0.4-4.3,1.2-5.5c0.8-1.2,2-1.8,3.5-1.8c1.6,0,2.7,0.6,3.5,1.9
			C467.2,364.1,467.6,365.9,467.6,368.3z M459.8,368.3c0,2.1,0.2,3.6,0.7,4.5c0.5,0.9,1.3,1.4,2.3,1.4c1.1,0,1.9-0.5,2.3-1.4
			c0.5-1,0.7-2.5,0.7-4.5c0-2.1-0.2-3.6-0.7-4.5c-0.5-1-1.3-1.4-2.3-1.4c-1.1,0-1.8,0.5-2.3,1.4
			C460.1,364.7,459.8,366.2,459.8,368.3z M471.4,375.4l5.9-12.8h-7.8v-1.5h9.5v1.3l-5.8,13H471.4z M487.2,361.1l-5.3,14.3h-1.6
			l5.3-14.3H487.2z M497.8,375.4h-9.4V374l3.8-3.8c1.1-1.2,1.9-2,2.3-2.5c0.4-0.5,0.6-1,0.8-1.5c0.2-0.5,0.3-1,0.3-1.5
			c0-0.8-0.2-1.4-0.7-1.8c-0.5-0.4-1.1-0.7-1.9-0.7c-0.6,0-1.2,0.1-1.7,0.3c-0.5,0.2-1.1,0.5-1.8,1.1l-0.9-1.1
			c1.3-1.1,2.8-1.6,4.3-1.6c1.3,0,2.4,0.3,3.2,1c0.8,0.7,1.1,1.6,1.1,2.8c0,0.9-0.3,1.8-0.8,2.7c-0.5,0.9-1.4,2-2.8,3.4l-3.1,3.1
			v0.1h7.3V375.4z M509.3,368.3c0,2.5-0.4,4.3-1.2,5.5c-0.8,1.2-2,1.8-3.6,1.8c-1.5,0-2.7-0.6-3.5-1.9c-0.8-1.3-1.2-3.1-1.2-5.5
			c0-2.5,0.4-4.3,1.2-5.5c0.8-1.2,2-1.8,3.5-1.8c1.6,0,2.7,0.6,3.5,1.9C508.9,364.1,509.3,365.9,509.3,368.3z M501.5,368.3
			c0,2.1,0.2,3.6,0.7,4.5c0.5,0.9,1.3,1.4,2.3,1.4c1.1,0,1.9-0.5,2.3-1.4c0.5-1,0.7-2.5,0.7-4.5c0-2.1-0.2-3.6-0.7-4.5
			c-0.5-1-1.3-1.4-2.3-1.4c-1.1,0-1.8,0.5-2.3,1.4C501.7,364.7,501.5,366.2,501.5,368.3z M520.6,375.4h-9.4V374l3.7-3.8
			c1.1-1.2,1.9-2,2.3-2.5c0.4-0.5,0.6-1,0.8-1.5c0.2-0.5,0.3-1,0.3-1.5c0-0.8-0.2-1.4-0.7-1.8c-0.5-0.4-1.1-0.7-1.9-0.7
			c-0.6,0-1.2,0.1-1.7,0.3c-0.5,0.2-1.1,0.5-1.8,1.1l-0.9-1.1c1.3-1.1,2.8-1.6,4.3-1.6c1.3,0,2.4,0.3,3.2,1c0.8,0.7,1.1,1.6,1.1,2.8
			c0,0.9-0.3,1.8-0.8,2.7c-0.5,0.9-1.4,2-2.8,3.4l-3.1,3.1v0.1h7.3V375.4z M532.1,368.3c0,2.5-0.4,4.3-1.2,5.5
			c-0.8,1.2-2,1.8-3.6,1.8c-1.5,0-2.7-0.6-3.5-1.9c-0.8-1.3-1.2-3.1-1.2-5.5c0-2.5,0.4-4.3,1.2-5.5c0.8-1.2,2-1.8,3.5-1.8
			c1.6,0,2.7,0.6,3.5,1.9C531.7,364.1,532.1,365.9,532.1,368.3z M524.3,368.3c0,2.1,0.2,3.6,0.7,4.5c0.5,0.9,1.3,1.4,2.3,1.4
			c1.1,0,1.9-0.5,2.3-1.4c0.5-1,0.7-2.5,0.7-4.5c0-2.1-0.2-3.6-0.7-4.5c-0.5-1-1.3-1.4-2.3-1.4c-1.1,0-1.8,0.5-2.3,1.4
			C524.6,364.7,524.3,366.2,524.3,368.3z"/>
		<a xlink:href="mailto:hirehaleymcclellan@gmail.com" >
			<path class="st11" d="M335.9,332.2h288.2v24H335.9V332.2z"/>
		</a>
	</g>
</g>
</svg>
